<?xml version="1.0" encoding="UTF-8" standalone="no"?>
<!DOCTYPE svg PUBLIC "-//W3C//DTD SVG 1.1//EN" "http://www.w3.org/Graphics/SVG/1.1/DTD/svg11.dtd">
<!-- Created with Vectornator (http://vectornator.io/) -->
<svg height="100%" stroke-miterlimit="10" style="fill-rule:nonzero;clip-rule:evenodd;stroke-linecap:round;stroke-linejoin:round;" version="1.1" viewBox="0 0 834 834" width="100%" xml:space="preserve" xmlns="http://www.w3.org/2000/svg" xmlns:vectornator="http://vectornator.io" xmlns:xlink="http://www.w3.org/1999/xlink">
<defs>
<linearGradient gradientTransform="matrix(222.101 0 0 222.101 302.179 413.96)" gradientUnits="userSpaceOnUse" id="LinearGradient" x1="0" x2="1" y1="0" y2="0">
<stop offset="0" stop-color="#f8977d"/>
<stop offset="1" stop-color="#e38686"/>
</linearGradient>
<linearGradient gradientTransform="matrix(25.8168 0 0 25.8168 404.741 331.459)" gradientUnits="userSpaceOnUse" id="LinearGradient_2" x1="0" x2="1" y1="0" y2="0">
<stop offset="0" stop-color="#cfffe3"/>
<stop offset="1" stop-color="#b2f8cf"/>
</linearGradient>
<linearGradient gradientTransform="matrix(29.0926 0 0 29.0926 374.912 320.326)" gradientUnits="userSpaceOnUse" id="LinearGradient_3" x1="0" x2="1" y1="0" y2="0">
<stop offset="0" stop-color="#d3fcb3"/>
<stop offset="1" stop-color="#b2f8cf"/>
</linearGradient>
</defs>
<g id="图层-1" vectornator:layerName="图层 1">
<path d="M271.215 408.93C271.215 202.443 334.797 35.0528 413.229 35.0528C491.661 35.0528 555.243 202.443 555.243 408.93C555.243 615.416 491.661 782.807 413.229 782.807C334.797 782.807 271.215 615.416 271.215 408.93Z" fill="none" opacity="1" stroke="#a9e0ff" stroke-linecap="butt" stroke-linejoin="round" stroke-width="10" vectornator:layerName="椭圆 1"/>
<path d="M340.618 530.978C163.162 425.403 51.8147 285.175 91.9166 217.769C132.018 150.364 308.384 181.307 485.84 286.882C663.296 392.457 774.643 532.685 734.541 600.09C694.44 667.496 518.074 636.553 340.618 530.978Z" fill="none" opacity="1" stroke="#a9e0ff" stroke-linecap="butt" stroke-linejoin="round" stroke-width="10" vectornator:layerName="椭圆 3"/>
<path d="M330.323 293.628C497.97 173.083 670.994 126.985 716.782 190.665C762.57 254.344 663.783 403.687 496.135 524.232C328.488 644.777 155.464 690.875 109.676 627.195C63.8883 563.515 162.675 414.172 330.323 293.628Z" fill="none" opacity="1" stroke="#a9e0ff" stroke-linecap="butt" stroke-linejoin="round" stroke-width="10" vectornator:layerName="椭圆 2"/>
</g>
<g id="图层-3" vectornator:layerName="图层 3">
<path d="M468.815 108.173C468.815 92.9867 481.231 80.6754 496.547 80.6754C511.863 80.6754 524.279 92.9867 524.279 108.173C524.279 123.36 511.863 135.671 496.547 135.671C481.231 135.671 468.815 123.36 468.815 108.173Z" fill="#fbc59f" fill-rule="nonzero" opacity="1" stroke="#a9e0ff" stroke-linecap="butt" stroke-linejoin="round" stroke-width="10" vectornator:layerName="椭圆 1"/>
<path d="M468.815 108.173C468.815 92.9867 481.231 80.6754 496.547 80.6754C511.863 80.6754 524.279 92.9867 524.279 108.173C524.279 123.36 511.863 135.671 496.547 135.671C481.231 135.671 468.815 123.36 468.815 108.173Z" fill="#fbc59f" fill-rule="nonzero" opacity="1" stroke="#a9e0ff" stroke-linecap="butt" stroke-linejoin="round" stroke-width="10" vectornator:layerName="椭圆 5"/>
<path d="M83.7447 523.263C83.9271 508.077 96.4902 495.916 111.805 496.1C127.12 496.284 139.388 508.744 139.205 523.929C139.023 539.115 126.46 551.276 111.145 551.092C95.8298 550.908 83.5624 538.449 83.7447 523.263Z" fill="#fbc59f" fill-rule="nonzero" opacity="1" stroke="#a9e0ff" stroke-linecap="butt" stroke-linejoin="round" stroke-width="10" vectornator:layerName="椭圆 4"/>
<path d="M598.676 637.931C597.217 622.815 608.392 609.367 623.638 607.896C638.883 606.424 652.425 617.485 653.884 632.602C655.343 647.718 644.167 661.166 628.922 662.637C613.677 664.109 600.135 653.048 598.676 637.931Z" fill="#fbc59f" fill-rule="nonzero" opacity="1" stroke="#a9e0ff" stroke-linecap="butt" stroke-linejoin="round" stroke-width="10" vectornator:layerName="椭圆 2"/>
<path d="M468.815 108.173C468.815 92.9867 481.231 80.6754 496.547 80.6754C511.863 80.6754 524.279 92.9867 524.279 108.173C524.279 123.36 511.863 135.671 496.547 135.671C481.231 135.671 468.815 123.36 468.815 108.173Z" fill="#fbc59f" fill-rule="nonzero" opacity="1" stroke="#a9e0ff" stroke-linecap="butt" stroke-linejoin="round" stroke-width="10" vectornator:layerName="椭圆 3"/>
</g>
<g id="图层-2" vectornator:layerName="图层 2">
<path d="M407.726 367.091C411.688 360.577 412.955 351.291 419.685 346.244C498.746 286.948 561.511 426.297 498.551 478.764C483.809 491.049 447.565 498.013 430.028 487.491C424.142 483.959 415.062 477.124 410.958 471.653C410.684 471.287 409.653 469.179 409.019 469.391C407.567 469.875 405.149 479.404 402.555 481.35C392.654 488.775 377.983 497.55 364.738 495.895C307.058 488.685 285.821 413.551 315.608 368.869C326.707 352.222 355.905 331.746 377.667 341.072C385.739 344.532 394.367 351.488 399.646 358.526C401.907 361.542 402.092 369.908 405.464 368.223C406.987 367.461 407.222 367.921 407.726 367.091Z" fill="url(#LinearGradient)" fill-rule="nonzero" opacity="1" stroke="#a9e0ff" stroke-linecap="round" stroke-linejoin="round" stroke-width="10" vectornator:layerName="曲线 1"/>
<path d="M407.726 356.748C407.261 355.818 405.625 356.273 404.817 355.617C404.553 355.402 405.058 354.978 405.14 354.647C405.892 351.642 406.892 348.342 407.403 345.274C409.092 335.142 413.494 325.012 418.069 315.861C418.832 314.335 424.7 305.841 425.826 305.841C427.176 305.841 427.071 308.239 427.766 309.397C430.469 313.903 428.848 318.898 430.028 323.618C432.794 334.68 424.224 343.728 416.13 349.799C415.175 350.515 411.58 356.544 411.282 356.587C409.146 356.892 408.064 357.425 407.726 356.748Z" fill="url(#LinearGradient_2)" fill-rule="nonzero" opacity="1" stroke="#a9e0ff" stroke-linecap="round" stroke-linejoin="round" stroke-width="10" vectornator:layerName="曲线 2"/>
<path d="M402.393 351.092C407.318 336.226 399.917 319.296 394.151 305.841C391.705 300.133 388.259 295.728 384.454 290.973C383.999 290.404 380.32 285.667 379.606 287.095C378.048 290.21 378.233 294.684 377.667 298.084C377.257 300.544 376.137 302.735 375.727 305.195C374.06 315.2 374.713 327.207 379.929 335.901C384.489 343.501 387.565 346.233 394.474 351.415C395.027 351.83 400.104 354.468 400.615 353.678C401.741 351.938 402.05 352.126 402.393 351.092Z" fill="url(#LinearGradient_3)" fill-rule="nonzero" opacity="1" stroke="#a9e0ff" stroke-linecap="round" stroke-linejoin="round" stroke-width="10" vectornator:layerName="曲线 3"/>
<path d="M468.815 352.062C472.073 352.062 474.137 354.238 476.895 355.617C489.76 362.05 494.437 373.893 500.49 386" fill="none" opacity="1" stroke="#e0f7fd" stroke-linecap="round" stroke-linejoin="round" stroke-width="10" vectornator:layerName="曲线 4"/>
<path d="M504.692 404.747C504.692 407.339 506.631 409.405 506.631 412.181" fill="none" opacity="1" stroke="#e0f7fd" stroke-linecap="round" stroke-linejoin="round" stroke-width="10" vectornator:layerName="曲线 5"/>
<g fill="#a9e0ff" opacity="1" stroke="none" vectornator:layerName="文本 1">
<path d="M423.355 553.325C423.31 553.254 423.247 553.187 423.165 553.125C423.084 553.063 423 553.009 422.915 552.964C422.876 552.946 422.826 552.913 422.768 552.865L422.754 552.81C422.765 552.803 422.788 552.795 422.825 552.786C422.862 552.777 422.884 552.756 422.892 552.723C422.942 552.691 422.982 552.687 423.012 552.712L423.321 552.73C423.507 552.755 423.629 552.713 423.689 552.605L423.967 552.303C423.991 552.274 424.012 552.218 424.031 552.135C424.035 552.118 424.044 552.088 424.059 552.043C424.073 551.999 424.12 551.972 424.201 551.965C424.227 551.962 424.248 551.949 424.261 551.926C424.275 551.903 424.301 551.887 424.338 551.878L424.429 551.821L424.606 551.731C424.718 551.661 424.82 551.632 424.913 551.644C424.936 551.658 424.988 551.661 425.068 551.653C425.095 551.651 425.123 551.662 425.152 551.686C425.181 551.71 425.192 551.738 425.185 551.771C425.173 551.821 425.185 551.863 425.221 551.897L425.24 551.928C425.284 552.042 425.305 552.121 425.304 552.164L425.323 552.195C425.399 552.203 425.408 552.24 425.35 552.305C425.339 552.355 425.339 552.39 425.352 552.41C425.35 552.497 425.323 552.578 425.271 552.653L424.907 553.157C424.731 553.396 424.599 553.592 424.512 553.746C424.446 553.844 424.367 553.922 424.276 553.979C424.333 553.844 424.361 553.749 424.361 553.692C424.361 553.635 424.342 553.577 424.303 553.516C424.277 553.518 424.244 553.511 424.204 553.493C424.165 553.475 424.132 553.468 424.105 553.47L423.756 553.456L423.521 553.454C423.468 553.46 423.412 553.417 423.355 553.325ZM432.019 550.942C432.065 550.97 432.097 550.999 432.116 551.03C432.136 551.06 432.15 551.094 432.159 551.131C432.168 551.168 432.174 551.2 432.176 551.226C432.227 551.308 432.264 551.377 432.285 551.434C432.329 551.548 432.367 551.631 432.399 551.682L432.469 551.828L432.473 551.869C432.466 551.902 432.471 551.938 432.488 551.976C432.505 552.015 432.52 552.045 432.533 552.065C432.61 552.187 432.662 552.281 432.69 552.349C432.712 552.406 432.743 552.472 432.782 552.546C432.822 552.62 432.844 552.684 432.849 552.738C432.856 552.748 432.863 552.793 432.871 552.873L432.932 553.005L433.047 553.357C433.054 553.367 433.054 553.385 433.049 553.41C433.043 553.435 433.041 553.46 433.044 553.487C433.05 553.497 433.063 553.539 433.08 553.613L433.102 553.748C433.121 553.779 433.14 553.831 433.158 553.905C433.166 553.941 433.183 553.995 433.206 554.066C433.229 554.136 433.243 554.198 433.248 554.252C433.267 554.282 433.278 554.311 433.281 554.337C433.283 554.364 433.286 554.391 433.288 554.418C433.295 554.428 433.296 554.441 433.292 554.458C433.289 554.474 433.29 554.488 433.296 554.498L433.3 554.538C433.364 554.639 433.38 554.743 433.347 554.849C433.343 554.865 433.344 554.879 433.351 554.889C433.367 554.892 433.37 554.919 433.358 554.969C433.345 554.992 433.34 555.03 433.345 555.083C433.354 555.12 433.345 555.162 433.317 555.207C433.307 555.214 433.305 555.222 433.311 555.232C433.318 555.242 433.316 555.251 433.306 555.257L433.297 555.581C433.271 555.541 433.233 555.536 433.182 555.568L433.162 555.773C433.154 555.806 433.143 555.838 433.127 555.869C433.111 555.9 433.099 555.932 433.092 555.965C433.078 555.988 433.056 556.009 433.025 556.029C432.964 556.067 432.93 556.103 432.922 556.136C432.925 556.162 432.901 556.192 432.85 556.224L432.719 556.285C432.708 556.291 432.704 556.301 432.705 556.315C432.707 556.328 432.705 556.343 432.702 556.359L432.665 556.403C432.622 556.402 432.569 556.407 432.505 556.419C432.442 556.431 432.393 556.433 432.36 556.425C432.274 556.423 432.158 556.396 432.013 556.346C431.745 556.259 431.543 556.173 431.405 556.09L430.769 555.788L430.573 555.678C430.533 555.66 430.502 555.655 430.478 555.663C430.455 555.67 430.437 555.699 430.426 555.749C430.384 555.817 430.361 555.86 430.357 555.877L430.346 555.926C430.339 555.959 430.338 555.981 430.344 555.991C430.301 556.103 430.266 556.182 430.238 556.228L430.229 556.382L430.066 556.698C430.052 556.721 430.038 556.744 430.024 556.766C430.01 556.789 429.996 556.812 429.982 556.835C429.958 556.865 429.926 556.899 429.887 556.938C429.847 556.976 429.824 557.012 429.816 557.046C429.815 557.089 429.793 557.131 429.748 557.174C429.704 557.216 429.671 557.243 429.651 557.256C429.631 557.269 429.616 557.285 429.607 557.305C429.598 557.324 429.592 557.342 429.588 557.359L429.48 557.491C429.46 557.504 429.435 557.533 429.408 557.579C429.396 557.629 429.349 557.666 429.265 557.69C429.255 557.696 429.227 557.692 429.183 557.678C429.138 557.663 429.118 557.648 429.121 557.631C429.115 557.621 429.114 557.608 429.118 557.591C429.121 557.574 429.128 557.563 429.138 557.557C429.228 557.429 429.288 557.264 429.317 557.062C429.354 556.897 429.379 556.732 429.39 556.57C429.42 556.437 429.437 556.306 429.44 556.176L429.425 556.186C429.385 556.212 429.34 556.254 429.292 556.312C429.282 556.319 429.264 556.33 429.239 556.346C429.213 556.362 429.187 556.371 429.16 556.374L429.094 556.437L429.048 556.465C428.987 556.504 428.883 556.541 428.735 556.577C428.522 556.598 428.377 556.604 428.3 556.595C428.3 556.595 428.211 556.588 428.031 556.573L427.926 556.575L428.041 556.758L428.118 556.88L428.294 557.194C428.31 557.241 428.346 557.31 428.403 557.402C428.429 557.443 428.457 557.51 428.488 557.604C428.497 557.641 428.515 557.675 428.543 557.708C428.57 557.74 428.588 557.775 428.597 557.812C428.61 557.832 428.614 557.85 428.611 557.867C428.607 557.884 428.611 557.902 428.624 557.922L428.682 558.014L428.71 558.059C428.741 558.154 428.754 558.23 428.749 558.29L428.77 558.426L428.729 558.494L428.725 558.624L428.655 558.647C428.69 558.682 428.691 558.716 428.657 558.752C428.626 558.771 428.621 558.796 428.64 558.827L428.628 558.876C428.561 558.904 428.522 558.943 428.51 558.993C428.477 558.985 428.424 558.991 428.35 559.009L428.28 559.032C428.273 559.021 428.26 559.023 428.239 559.036C428.192 559.051 428.111 559.045 427.995 559.019C427.764 558.966 427.568 558.891 427.407 558.793C427.39 558.79 427.273 558.75 427.056 558.674C427.033 558.66 426.947 558.614 426.8 558.537L426.693 558.434C426.62 558.409 426.56 558.369 426.511 558.315L426.467 558.279L426.473 558.254C426.473 558.254 426.489 558.257 426.522 558.265C426.687 558.346 426.777 558.388 426.794 558.392C427.03 558.498 427.204 558.56 427.313 558.576C427.486 558.581 427.611 558.566 427.689 558.531C427.746 558.509 427.759 558.473 427.727 558.422C427.718 558.386 427.707 558.346 427.695 558.304C427.683 558.262 427.661 558.216 427.629 558.165C427.56 558.01 427.5 557.892 427.449 557.811L427.293 557.462L427.071 557.006C426.977 556.767 426.907 556.599 426.86 556.501C426.834 556.461 426.806 556.393 426.775 556.299L426.766 556.284L426.531 556.113C426.501 556.089 426.445 556.067 426.363 556.048L426.24 555.955C426.23 555.961 426.221 555.981 426.214 556.014L426.201 556.468L426.195 556.898L426.198 557.342C426.195 557.429 426.197 557.505 426.204 557.572C426.21 557.639 426.216 557.699 426.222 557.752L426.249 558.033L426.248 558.268C426.244 558.397 426.249 558.586 426.262 558.832L426.248 559.182C426.244 559.198 426.248 559.221 426.259 559.249C426.269 559.278 426.273 559.3 426.269 559.317C426.258 559.367 426.258 559.423 426.27 559.487C426.279 559.524 426.274 559.583 426.255 559.666C426.232 559.765 426.209 559.83 426.185 559.859C426.174 559.865 426.157 559.877 426.131 559.893C426.106 559.908 426.087 559.913 426.076 559.906C426.065 559.899 426.052 559.885 426.04 559.865C426.027 559.845 426.002 559.839 425.965 559.848C425.949 559.844 425.935 559.839 425.923 559.832C425.912 559.825 425.898 559.82 425.881 559.816C425.865 559.812 425.838 559.804 425.802 559.791C425.766 559.779 425.737 559.779 425.717 559.791C425.69 559.794 425.668 559.787 425.65 559.77C425.632 559.753 425.625 559.736 425.629 559.719C425.643 559.696 425.643 559.668 425.629 559.634C425.615 559.601 425.606 559.57 425.604 559.544C425.566 559.483 425.558 559.438 425.583 559.408C425.583 559.408 425.583 559.404 425.585 559.396C425.587 559.388 425.588 559.383 425.588 559.383C425.565 559.369 425.562 559.347 425.578 559.316C425.593 559.285 425.6 559.256 425.597 559.229L425.595 558.954L425.613 558.645C425.615 558.558 425.609 558.435 425.593 558.275C425.588 558.221 425.59 558.135 425.6 558.015L425.594 557.701C425.591 557.674 425.594 557.651 425.603 557.631C425.612 557.611 425.615 557.588 425.612 557.561C425.61 557.535 425.605 557.499 425.598 557.453C425.591 557.408 425.581 557.376 425.568 557.355L425.575 557.096C425.58 557.036 425.584 556.963 425.586 556.876C425.588 556.79 425.584 556.693 425.574 556.586C425.585 556.537 425.588 556.507 425.581 556.497C425.589 556.464 425.591 556.427 425.587 556.387C425.583 556.347 425.587 556.302 425.598 556.252L425.584 556.197L425.586 556.132C425.605 556.049 425.611 556.003 425.605 555.993L425.595 555.978C425.618 555.878 425.623 555.762 425.61 555.628C425.624 555.606 425.627 555.589 425.621 555.579C425.615 555.569 425.613 555.555 425.617 555.539C425.621 555.522 425.616 555.504 425.604 555.483C425.583 555.496 425.571 555.511 425.568 555.527C425.564 555.544 425.552 555.559 425.531 555.571L425.514 555.646L425.46 555.829C425.406 555.948 425.38 556.007 425.38 556.007L425.342 556.116L425.186 556.511L425.175 556.561C425.165 556.567 425.156 556.587 425.148 556.62L425.065 556.757L424.972 556.88C424.954 556.919 424.92 556.955 424.869 556.987C424.795 557.005 424.749 557.034 424.732 557.073L424.656 557.121L424.503 557.217C424.493 557.223 424.471 557.222 424.438 557.215L424.423 557.224C424.419 557.241 424.4 557.25 424.365 557.25C424.33 557.251 424.307 557.255 424.297 557.261L424.251 557.29C424.231 557.303 424.215 557.316 424.203 557.331C424.191 557.346 424.171 557.354 424.145 557.357C424.074 557.401 424.031 557.379 424.017 557.288C423.998 557.258 423.971 557.239 423.938 557.231C423.789 557.197 423.683 557.151 423.617 557.093C423.597 557.106 423.584 557.107 423.577 557.097C423.558 557.066 423.53 557.056 423.493 557.064L423.484 557.049C423.514 557.03 423.538 557.022 423.554 557.026C423.614 557.031 423.684 557.03 423.764 557.022C423.844 557.014 423.911 557.008 423.965 557.002C424.022 556.981 424.069 556.944 424.107 556.891L424.227 556.54C424.253 556.424 424.264 556.34 424.259 556.286L424.3 556.217L424.317 556.143C424.329 556.093 424.334 556.068 424.334 556.068C424.366 556.006 424.384 555.945 424.389 555.885C424.384 555.832 424.402 555.792 424.442 555.767C424.484 555.698 424.501 555.623 424.493 555.543L424.509 555.534C424.543 555.498 424.561 555.437 424.564 555.35C424.555 555.314 424.569 555.269 424.607 555.217C424.658 555.185 424.667 555.144 424.635 555.093C424.633 555.066 424.638 555.041 424.652 555.018C424.666 554.995 424.675 554.976 424.679 554.959C424.679 554.959 424.692 554.901 424.719 554.785C424.729 554.779 424.748 554.753 424.776 554.707L424.791 554.697C424.772 554.667 424.778 554.631 424.809 554.59C424.84 554.55 424.852 554.524 424.846 554.514C424.861 554.448 424.875 554.403 424.889 554.38L424.922 554.296L425.024 554.019C425.042 553.98 425.06 553.936 425.08 553.889C425.1 553.841 425.118 553.797 425.136 553.758C425.14 553.741 425.144 553.714 425.148 553.676C425.152 553.638 425.17 553.609 425.2 553.59C425.276 553.372 425.312 553.271 425.308 553.288C425.312 553.271 425.312 553.254 425.307 553.236C425.303 553.217 425.304 553.191 425.312 553.158C425.316 553.142 425.324 553.115 425.337 553.079C425.349 553.043 425.371 553.015 425.401 552.996C425.422 552.983 425.466 552.941 425.534 552.87C425.585 552.838 425.625 552.799 425.652 552.753L425.737 552.785C425.767 552.766 425.799 552.76 425.832 552.768L426.057 552.754L426.059 552.859C426.09 552.84 426.118 552.829 426.145 552.826C426.137 552.859 426.137 552.881 426.143 552.891C426.156 552.911 426.179 552.925 426.212 552.933C426.265 552.928 426.335 552.948 426.42 552.993L426.43 553.009L426.505 553.196C426.516 553.259 426.497 553.307 426.446 553.339C426.431 553.405 426.423 553.438 426.423 553.438L426.403 553.642C426.387 553.708 426.373 553.781 426.359 553.861C426.345 553.94 426.332 554.027 426.32 554.119C426.325 554.173 426.323 554.231 426.313 554.294C426.303 554.357 426.296 554.432 426.294 554.518C426.264 554.764 426.249 555 426.25 555.226C426.24 555.459 426.24 555.594 426.249 555.631C426.249 555.631 426.241 555.664 426.226 555.73L426.381 555.739C426.534 555.757 426.644 555.786 426.713 555.828L426.902 555.858C427.001 555.881 427.094 555.915 427.179 555.96C427.185 555.971 427.201 555.979 427.226 555.984C427.251 555.99 427.271 555.995 427.288 555.998C427.321 556.006 427.341 556.015 427.347 556.025C427.357 556.019 427.365 556.02 427.372 556.031C427.378 556.041 427.386 556.043 427.397 556.036L427.5 556.099C427.51 556.093 427.516 556.085 427.518 556.077C427.52 556.069 427.518 556.06 427.511 556.049L427.476 555.689C427.461 555.642 427.448 555.565 427.437 555.458C427.419 555.384 427.413 555.261 427.417 555.088L427.4 554.993C427.404 554.976 427.389 554.964 427.356 554.956L427.1 554.99C427.084 554.986 427.066 554.986 427.048 554.991C427.029 554.995 427.009 554.99 426.986 554.976L426.971 554.986L427.048 554.873C427.073 554.844 427.12 554.807 427.191 554.762C427.252 554.724 427.296 554.703 427.323 554.701C427.343 554.688 427.363 554.679 427.381 554.675C427.399 554.67 427.416 554.657 427.43 554.634C427.433 554.617 427.457 554.61 427.5 554.611C427.587 554.613 427.653 554.607 427.7 554.591C427.717 554.595 427.738 554.6 427.762 554.605C427.787 554.611 427.808 554.616 427.824 554.62C427.868 554.621 427.911 554.633 427.953 554.655C427.996 554.678 428.039 554.69 428.082 554.691C428.082 554.691 428.124 554.701 428.206 554.72C428.186 554.733 428.176 554.75 428.175 554.771C428.174 554.793 428.182 554.806 428.199 554.809L428.203 554.849C428.199 554.866 428.195 554.911 428.192 554.984C428.188 555.057 428.165 555.128 428.123 555.197C428.075 555.256 428.049 555.293 428.046 555.31L428.03 555.319C428 555.338 427.977 555.381 427.962 555.447C427.975 555.468 427.971 555.484 427.951 555.497C427.951 555.497 427.941 555.538 427.922 555.621C427.915 555.654 427.887 555.7 427.839 555.759C427.835 555.775 427.826 555.795 427.812 555.818C427.798 555.841 427.789 555.86 427.785 555.877L427.738 556.14C427.723 556.207 427.716 556.24 427.716 556.24C427.712 556.256 427.73 556.273 427.769 556.291C427.863 556.26 427.942 556.239 428.006 556.228L428.067 556.189C428.107 556.164 428.131 556.156 428.137 556.166C428.317 556.181 428.473 556.125 428.606 555.999C428.647 555.974 428.651 555.957 428.618 555.949L428.585 555.864L428.591 555.839C428.594 555.822 428.6 555.808 428.607 555.797C428.614 555.785 428.62 555.785 428.627 555.795C428.678 555.763 428.719 555.751 428.753 555.758C428.839 555.761 428.915 555.734 428.979 555.68C429.015 555.601 429.071 555.565 429.147 555.574L429.162 555.565C429.185 555.579 429.217 555.573 429.258 555.547C429.288 555.528 429.326 555.532 429.372 555.56L429.452 555.552L429.458 555.528L429.506 555.604L429.515 555.449L429.533 555.14L429.577 554.837C429.564 554.816 429.557 554.806 429.557 554.806C429.545 554.786 429.526 554.751 429.503 554.702C429.479 554.653 429.451 554.625 429.418 554.618L429.433 554.608L429.586 554.682L429.597 554.632C429.601 554.346 429.599 554.185 429.59 554.148C429.604 554.012 429.61 553.887 429.61 553.774C429.61 553.661 429.611 553.561 429.613 553.474C429.612 553.404 429.613 553.315 429.616 553.207C429.618 553.099 429.613 552.978 429.6 552.845L429.532 552.229C429.521 552.165 429.478 552.121 429.406 552.095C429.307 552.073 429.22 552.07 429.146 552.088L429.207 552.05C429.211 552.033 429.283 551.967 429.422 551.851C429.453 551.832 429.495 551.82 429.548 551.814L429.659 551.787L429.699 551.784C429.732 551.791 429.775 551.803 429.828 551.82C429.881 551.836 429.938 551.86 430.001 551.892C430.03 551.916 430.064 551.937 430.104 551.954C430.143 551.972 430.178 551.993 430.207 552.017C430.23 552.031 430.254 552.058 430.28 552.099C430.28 552.099 430.279 552.103 430.277 552.111C430.275 552.12 430.274 552.124 430.274 552.124L430.303 552.169C430.322 552.2 430.347 552.262 430.378 552.356L430.449 552.673C430.452 552.7 430.456 552.735 430.464 552.781C430.471 552.826 430.484 552.864 430.503 552.894L430.52 552.989L430.569 553.235C430.565 553.252 430.56 553.273 430.554 553.297C430.549 553.322 430.547 553.348 430.55 553.375L430.575 553.55L430.579 553.59L430.53 553.749L430.539 553.764C430.551 553.828 430.558 553.89 430.562 553.952C430.565 554.014 430.573 554.076 430.584 554.14C430.586 554.21 430.578 554.293 430.56 554.389C430.542 554.485 430.529 554.571 430.521 554.647C430.517 554.664 430.518 554.677 430.524 554.687C430.531 554.698 430.529 554.706 430.519 554.712L430.489 554.901L430.48 555.056L430.491 555.176L430.52 555.222C430.726 555.347 430.954 555.438 431.202 555.495L431.813 555.621C431.856 555.622 431.905 555.616 431.96 555.603C432.016 555.589 432.057 555.581 432.083 555.579L432.11 555.519L432.087 555.449C432.038 555.281 432.007 555.152 431.993 555.062L431.869 554.629L431.875 554.434L431.825 554.253C431.809 554.206 431.797 554.164 431.788 554.127C431.779 554.09 431.77 554.054 431.761 554.017L431.686 553.66L431.564 553.162C431.539 553.122 431.525 553.088 431.522 553.061L431.434 552.819L431.248 552.32C431.181 552.078 431.11 551.875 431.034 551.71L430.731 550.923C430.722 550.886 430.704 550.851 430.676 550.819C430.649 550.786 430.632 550.765 430.626 550.755L430.607 550.724C430.432 550.65 430.291 550.618 430.185 550.628C430.174 550.634 430.143 550.64 430.089 550.645C429.996 550.633 429.927 550.669 429.882 550.755L429.623 551.087C429.502 551.234 429.428 551.33 429.4 551.376C429.366 551.412 429.321 551.475 429.265 551.567L429.147 551.684C429.117 551.703 429.105 551.718 429.111 551.728C429.114 551.754 429.098 551.786 429.064 551.821C429.029 551.857 429.007 551.878 428.997 551.884L428.898 552.032C428.884 552.055 428.857 552.079 428.816 552.104C428.786 552.123 428.774 552.138 428.78 552.148C428.779 552.192 428.759 552.239 428.721 552.292L428.592 552.458C428.546 552.543 428.478 552.593 428.388 552.607C428.365 552.593 428.333 552.599 428.293 552.625C428.262 552.644 428.241 552.643 428.228 552.623L428.197 552.642L428.121 552.69C428.048 552.708 428.001 552.723 427.98 552.736C427.868 552.806 427.781 552.847 427.717 552.859L427.471 552.907C427.451 552.92 427.414 552.929 427.361 552.934C427.361 552.934 427.366 552.909 427.378 552.86C427.311 552.844 427.279 552.815 427.28 552.772L427.236 552.736C427.236 552.736 427.22 552.732 427.186 552.725L427.232 552.696C427.256 552.666 427.304 552.619 427.376 552.552C427.448 552.486 427.504 552.418 427.546 552.35L427.755 552.006L427.972 551.742L428.176 551.423C428.21 551.387 428.247 551.35 428.286 551.311C428.325 551.272 428.359 551.23 428.387 551.184C428.401 551.161 428.412 551.14 428.421 551.12C428.43 551.1 428.449 551.081 428.48 551.061C428.508 551.016 428.542 550.98 428.583 550.954C428.593 550.948 428.597 550.938 428.596 550.925C428.595 550.911 428.599 550.902 428.609 550.895L428.866 550.627C428.983 550.497 429.062 550.42 429.102 550.394C429.215 550.281 429.331 550.194 429.449 550.134C429.5 550.102 429.542 550.09 429.575 550.097C429.592 550.058 429.645 550.039 429.731 550.041L429.931 550.022L429.971 550.018L430.011 550.014C430.154 550.038 430.295 550.07 430.433 550.11C430.466 550.118 430.506 550.136 430.552 550.164C430.67 550.217 430.778 550.241 430.874 550.237L430.974 550.26C431.106 550.29 431.226 550.3 431.332 550.29C431.423 550.275 431.487 550.299 431.525 550.36C431.63 550.436 431.703 550.496 431.745 550.54L431.831 550.678L431.908 550.799C431.953 550.871 431.99 550.918 432.019 550.942Z"/>
<path d="M439.974 545.774L439.961 545.718C439.984 545.619 439.993 545.521 439.989 545.424C440 545.262 440.006 545.024 440.008 544.711L440.014 544.112C440.019 544.052 440.027 543.98 440.038 543.895C440.048 543.81 440.055 543.725 440.057 543.638C440.083 543.296 440.1 543.108 440.107 543.075C440.13 542.976 440.147 542.823 440.16 542.617C440.197 542.339 440.214 542.208 440.21 542.224C440.234 542.082 440.222 541.961 440.175 541.864C440.176 541.82 440.144 541.77 440.079 541.711C440.004 541.659 439.902 541.61 439.774 541.563C439.553 541.461 439.427 541.406 439.393 541.398C439.195 541.353 438.979 541.269 438.746 541.146C438.746 541.146 438.705 541.136 438.622 541.117C438.582 541.1 438.553 541.097 438.532 541.11C438.512 541.123 438.49 541.144 438.466 541.173C438.458 541.206 438.449 541.226 438.439 541.232C438.322 541.249 438.289 541.298 438.34 541.38L438.388 541.456L438.571 541.511C438.681 541.527 438.799 541.58 438.927 541.67C438.933 541.68 438.94 541.686 438.949 541.688C438.957 541.69 438.959 541.699 438.955 541.716L438.944 541.935L438.897 542.199L438.837 542.577C438.805 542.795 438.785 542.956 438.779 543.059L438.725 543.582L438.656 544.115C438.655 544.158 438.659 544.198 438.668 544.235C438.677 544.272 438.682 544.304 438.685 544.33C438.684 544.374 438.673 544.419 438.654 544.467C438.634 544.515 438.624 544.56 438.623 544.603C438.623 544.83 438.615 544.998 438.599 545.107C438.618 545.251 438.624 545.339 438.617 545.372C438.608 545.449 438.609 545.523 438.618 545.595C438.628 545.666 438.629 545.741 438.62 545.817L438.602 546.126C438.593 546.202 438.589 546.297 438.589 546.41C438.589 546.524 438.585 546.618 438.576 546.695C438.562 546.831 438.549 546.91 438.535 546.933C438.521 546.956 438.514 546.985 438.515 547.02C438.516 547.055 438.514 547.081 438.51 547.097C438.517 547.108 438.512 547.146 438.497 547.212C438.435 547.407 438.423 547.556 438.46 547.66C438.456 547.677 438.461 547.695 438.474 547.716C438.549 547.768 438.63 547.795 438.716 547.797C438.78 547.786 438.824 547.8 438.85 547.841C438.889 547.858 438.938 547.885 438.995 547.92C439.052 547.954 439.106 547.978 439.155 547.989C439.189 547.996 439.241 548.006 439.312 548.018C439.383 548.03 439.449 548.017 439.51 547.978C439.52 547.972 439.542 547.973 439.575 547.98C439.625 547.992 439.662 547.961 439.688 547.888C439.691 547.872 439.701 547.848 439.717 547.817C439.733 547.786 439.751 547.764 439.771 547.751L439.988 547.487C440.008 547.474 440.028 547.455 440.047 547.429C440.066 547.402 440.086 547.383 440.106 547.37C440.134 547.324 440.192 547.259 440.281 547.175L440.386 547.003C440.434 546.945 440.472 546.892 440.5 546.847L440.718 546.348C440.798 546.227 440.843 546.142 440.855 546.092L441.001 545.681C441.051 545.536 441.096 545.438 441.134 545.385L441.251 545.099C441.273 545.043 441.3 544.99 441.333 544.941C441.366 544.892 441.393 544.84 441.415 544.784L441.8 544.01C441.8 544.01 441.853 543.892 441.959 543.655C441.967 543.622 441.983 543.58 442.008 543.529C442.032 543.478 442.043 543.432 442.039 543.392C442.035 543.352 442.012 543.31 441.97 543.266C441.953 543.262 441.944 543.253 441.943 543.24C441.942 543.226 441.933 543.218 441.916 543.214C441.886 543.233 441.869 543.251 441.865 543.268L441.433 543.9C441.406 543.946 441.281 544.109 441.061 544.39L440.848 544.693L440.604 545.017C440.507 545.177 440.405 545.319 440.298 545.443L439.994 545.804L439.974 545.774ZM441.745 542.535C441.913 542.6 441.997 542.632 441.997 542.632C442.066 542.674 442.13 542.715 442.191 542.755C442.252 542.795 442.308 542.834 442.36 542.872C442.612 543.025 442.797 543.15 442.914 543.246L443.1 543.406C443.125 543.447 443.128 543.473 443.108 543.486C442.945 543.701 442.842 543.83 442.798 543.872L442.447 544.262C442.423 544.292 442.394 544.346 442.358 544.425C442.375 544.428 442.387 544.431 442.395 544.433C442.404 544.435 442.413 544.433 442.423 544.426C442.443 544.414 442.462 544.398 442.479 544.38C442.496 544.363 442.518 544.352 442.545 544.35C442.575 544.331 442.664 544.303 442.812 544.267C442.962 544.258 443.047 544.247 443.067 544.234C443.2 544.151 443.304 544.114 443.38 544.123L443.395 544.113C443.51 544.07 443.594 544.045 443.647 544.04C443.787 544.037 443.891 544.022 443.958 543.993C443.968 543.987 443.979 543.987 443.99 543.994C444.002 544.001 444.013 544.002 444.023 543.995L444.221 544.041C444.242 544.028 444.249 544.016 444.242 544.006C444.324 543.955 444.391 543.927 444.444 543.922L444.484 543.918C444.498 543.895 444.512 543.861 444.527 543.817C444.542 543.772 444.544 543.731 444.535 543.694C444.533 543.668 444.529 543.634 444.526 543.594C444.522 543.554 444.513 543.524 444.501 543.504L444.376 543.306C444.321 543.241 444.267 543.183 444.213 543.131C444.16 543.08 444.109 543.027 444.06 542.972C443.892 542.795 443.728 542.692 443.569 542.664L443.3 542.642C443.234 542.627 443.165 542.614 443.094 542.602C443.023 542.59 442.954 542.576 442.888 542.561C442.882 542.551 442.873 542.549 442.863 542.556C442.853 542.562 442.845 542.56 442.838 542.55L442.733 542.552C442.516 542.476 442.399 542.436 442.382 542.433C442.283 542.41 442.136 542.403 441.943 542.411C441.89 542.416 441.846 542.426 441.812 542.44C441.779 542.454 441.756 542.486 441.745 542.535ZM441.436 546.407C441.399 546.416 441.373 546.426 441.357 546.435C441.342 546.445 441.331 546.466 441.323 546.499C441.33 546.509 441.329 546.52 441.322 546.532C441.315 546.543 441.315 546.554 441.321 546.564C441.321 546.564 441.297 546.672 441.248 546.887C441.238 547.006 441.222 547.094 441.201 547.15C441.197 547.28 441.182 547.403 441.156 547.519L441.141 547.868L441.103 548.381C441.092 548.544 441.09 548.722 441.098 548.915L441.081 549.734C441.084 549.761 441.091 549.795 441.103 549.837C441.115 549.879 441.119 549.93 441.114 549.989L441.109 550.354L441.111 550.459C441.154 550.616 441.171 550.712 441.164 550.745C441.137 550.861 441.176 550.957 441.281 551.033C441.31 551.057 441.358 551.094 441.425 551.144C441.492 551.194 441.553 551.23 441.609 551.251C441.636 551.249 441.659 551.263 441.678 551.293C441.716 551.354 441.776 551.381 441.856 551.373C441.919 551.361 441.961 551.371 441.98 551.401C441.999 551.432 442.025 551.451 442.058 551.458C442.075 551.462 442.089 551.457 442.101 551.442C442.113 551.427 442.121 551.412 442.125 551.395L442.149 551.231L442.162 550.947C442.157 550.893 442.134 550.766 442.092 550.565C442.074 550.492 442.037 550.387 441.981 550.253L441.906 550.066C441.887 550.035 441.876 550.007 441.873 549.98C441.871 549.953 441.868 549.927 441.866 549.9C441.782 549.541 441.734 549.33 441.723 549.267L441.678 548.891C441.674 548.794 441.658 548.656 441.629 548.475C441.62 548.438 441.61 548.399 441.598 548.357C441.585 548.315 441.577 548.267 441.572 548.214L441.505 547.533C441.504 547.463 441.491 547.364 441.468 547.237C441.476 547.204 441.474 547.173 441.463 547.145C441.452 547.116 441.445 547.089 441.443 547.062C441.438 547.008 441.438 546.948 441.445 546.88C441.452 546.812 441.453 546.751 441.448 546.697C441.449 546.654 441.446 546.61 441.439 546.565C441.432 546.52 441.431 546.467 441.436 546.407ZM446.338 544.263C446.351 544.283 446.364 544.31 446.378 544.343C446.392 544.377 446.407 544.396 446.424 544.4C446.446 544.457 446.472 544.504 446.503 544.542C446.533 544.579 446.558 544.613 446.577 544.644L446.893 545.146L447.09 545.426C447.135 545.498 447.183 545.591 447.235 545.708C447.287 545.824 447.343 545.919 447.405 545.994C447.461 546.129 447.471 546.236 447.436 546.315C447.418 546.354 447.395 546.401 447.365 546.455C447.335 546.509 447.301 546.563 447.263 546.615C447.123 546.887 446.991 547.084 446.868 547.203C446.833 547.239 446.794 547.278 446.75 547.32C446.705 547.362 446.664 547.409 446.626 547.462C446.417 547.692 446.141 547.93 445.798 548.173C445.655 548.263 445.439 548.37 445.15 548.495C445.018 548.578 444.886 548.583 444.755 548.51C444.666 548.481 444.612 548.429 444.594 548.356C444.589 548.302 444.57 548.25 444.538 548.199C444.49 548.145 444.434 548.067 444.37 547.965C444.319 547.884 444.266 547.782 444.211 547.661C444.156 547.54 444.111 547.44 444.077 547.363C444 547.241 443.937 547.107 443.888 546.961C443.838 546.814 443.803 546.713 443.781 546.656C443.785 546.639 443.78 546.621 443.768 546.6C443.755 546.58 443.75 546.561 443.754 546.545C443.772 546.505 443.755 546.467 443.702 546.429C443.673 546.405 443.625 546.385 443.559 546.37C443.513 546.342 443.447 546.327 443.361 546.325C443.305 546.303 443.225 546.278 443.123 546.251C443.02 546.223 442.926 546.208 442.839 546.206C442.796 546.204 442.741 546.196 442.675 546.181C442.609 546.166 442.552 546.166 442.505 546.182C442.439 546.166 442.391 546.168 442.36 546.188C442.344 546.184 442.334 546.19 442.33 546.207C442.326 546.223 442.327 546.237 442.334 546.247C442.347 546.267 442.349 546.294 442.342 546.327C442.347 546.38 442.367 546.389 442.401 546.354C442.425 546.324 442.46 546.324 442.506 546.351C442.525 546.382 442.544 546.402 442.564 546.41C442.584 546.419 442.605 546.431 442.628 546.445C442.72 546.5 442.772 546.56 442.783 546.624L442.895 547.106C442.918 547.233 442.957 547.368 443.011 547.511C443.066 547.654 443.107 547.759 443.135 547.827C443.188 547.978 443.262 548.13 443.358 548.282C443.428 548.394 443.487 548.477 443.536 548.532C443.58 548.603 443.625 548.663 443.671 548.713C443.716 548.762 443.756 548.804 443.792 548.838C443.856 548.94 443.983 549.03 444.174 549.108C444.431 549.202 444.615 549.257 444.724 549.273C444.963 549.293 445.136 549.297 445.243 549.287C445.356 549.287 445.43 549.29 445.463 549.298C445.51 549.283 445.571 549.262 445.647 549.235C445.722 549.209 445.787 549.193 445.84 549.188C445.887 549.173 445.949 549.159 446.026 549.146C446.103 549.133 446.165 549.119 446.212 549.103C446.269 549.082 446.358 549.047 446.477 549.001C446.596 548.954 446.697 548.905 446.778 548.854C446.856 548.819 446.965 548.758 447.108 548.668C447.22 548.598 447.298 548.542 447.342 548.5C447.427 548.432 447.561 548.341 447.744 548.226L448.051 547.969L448.496 547.562C448.557 547.524 448.619 547.464 448.681 547.382C448.743 547.301 448.781 547.248 448.795 547.225L448.985 546.851C448.999 546.828 449.013 546.805 449.026 546.782C449.04 546.759 449.054 546.736 449.068 546.713L449.203 546.353C449.217 546.33 449.227 546.295 449.233 546.248C449.239 546.202 449.251 546.159 449.269 546.12C449.283 546.097 449.286 546.063 449.279 546.018C449.272 545.972 449.267 545.936 449.265 545.91C449.252 545.889 449.246 545.868 449.247 545.847C449.247 545.825 449.246 545.801 449.244 545.774C449.244 545.774 449.24 545.763 449.232 545.739C449.224 545.716 449.212 545.702 449.196 545.698C449.146 545.687 449.121 545.681 449.121 545.681C449.105 545.677 449.085 545.668 449.062 545.655C449.039 545.641 449.014 545.635 448.988 545.638C448.951 545.647 448.902 545.631 448.841 545.591C448.781 545.551 448.729 545.531 448.686 545.53L448.676 545.514L448.613 545.448C448.6 545.427 448.586 545.404 448.57 545.379C448.554 545.354 448.538 545.339 448.521 545.335C448.451 545.337 448.393 545.324 448.348 545.296L448.111 545.359C448.111 545.359 448.107 545.358 448.099 545.356C448.09 545.354 448.083 545.348 448.077 545.338C448.012 545.28 447.946 545.243 447.88 545.228C447.867 545.208 447.844 545.194 447.811 545.186C447.768 545.185 447.723 545.171 447.677 545.143C447.626 545.061 447.554 544.98 447.459 544.897C447.44 544.867 447.421 544.847 447.401 544.838C447.381 544.829 447.36 544.818 447.337 544.804C447.305 544.753 447.241 544.708 447.146 544.669L447.136 544.654C447.124 544.633 447.109 544.621 447.092 544.617C447.076 544.614 447.061 544.602 447.048 544.581C447.002 544.553 446.97 544.524 446.951 544.494C446.915 544.46 446.824 544.382 446.677 544.262C446.648 544.238 446.615 544.202 446.578 544.154C446.541 544.107 446.498 544.077 446.448 544.066C446.431 544.062 446.418 544.052 446.409 544.037C446.399 544.022 446.378 544.011 446.345 544.003C446.338 543.993 446.32 543.997 446.29 544.016L446.213 544.064L446.338 544.263Z"/>
<path d="M452.901 532.953L452.911 532.969C452.936 533.009 452.973 533.046 453.022 533.079C453.072 533.112 453.111 533.14 453.14 533.165C453.172 533.215 453.187 533.262 453.186 533.306L453.098 533.977C453.087 534.027 453.063 534.304 453.026 534.81C453.021 534.869 453.014 534.937 453.005 535.014C452.996 535.09 452.991 535.172 452.989 535.258C452.956 535.477 452.936 535.716 452.929 535.976C452.934 536.185 452.953 536.521 452.987 536.981C452.985 537.067 452.998 537.314 453.027 537.721C453.028 537.791 453.039 537.955 453.059 538.211L453.129 538.188C453.16 538.169 453.172 538.133 453.167 538.08C453.181 538.057 453.209 537.989 453.252 537.877L453.279 537.648L453.352 537.325L453.394 537.087C453.435 536.905 453.463 536.802 453.477 536.779C453.502 536.707 453.525 536.643 453.547 536.587C453.568 536.531 453.588 536.483 453.606 536.443L453.731 536.237C453.753 536.181 453.784 536.101 453.825 535.997C453.866 535.893 453.896 535.8 453.915 535.718C453.92 535.658 453.939 535.575 453.972 535.469C454.005 535.364 454.025 535.273 454.034 535.196L454.061 535.137C454.094 535.145 454.113 535.154 454.12 535.164L454.24 535.322C454.311 535.434 454.364 535.507 454.399 535.541C454.468 535.696 454.525 535.809 454.57 535.88L454.8 536.246C454.856 536.381 454.908 536.475 454.957 536.53L454.986 536.575C455.017 536.626 455.018 536.683 454.986 536.745L454.64 537.345L454.446 537.68L454.253 538.014C454.239 538.037 454.217 538.065 454.188 538.097C454.159 538.13 454.133 538.174 454.112 538.23C454.08 538.292 454.026 538.376 453.95 538.48C453.87 538.601 453.757 538.793 453.61 539.055C453.633 539.069 453.643 539.085 453.639 539.101C453.635 539.118 453.626 539.148 453.611 539.193C453.597 539.237 453.569 539.272 453.529 539.298C453.494 539.334 453.426 539.383 453.325 539.447L453.354 539.493C453.356 539.52 453.374 539.537 453.407 539.544C453.461 539.539 453.51 539.533 453.555 539.526C453.6 539.519 453.649 539.513 453.703 539.507C453.705 539.534 453.712 539.551 453.724 539.558C453.735 539.565 453.751 539.562 453.772 539.549L454.004 539.446L454.2 539.386L454.317 539.334C454.327 539.328 454.343 539.314 454.365 539.293C454.388 539.272 454.407 539.263 454.423 539.267L454.469 539.238L454.747 538.936C454.826 538.858 454.927 538.738 455.051 538.575C455.065 538.552 455.085 538.522 455.111 538.484C455.137 538.447 455.157 538.416 455.171 538.393L455.19 538.424C455.168 538.523 455.14 538.682 455.108 538.901C455.095 538.994 455.074 539.085 455.045 539.174C455.048 539.201 455.053 539.237 455.06 539.282C455.067 539.327 455.072 539.363 455.074 539.39L454.958 540.185C454.934 540.215 454.935 540.25 454.96 540.29L454.953 540.38C454.955 540.407 454.954 540.433 454.948 540.457C454.942 540.482 454.943 540.5 454.949 540.51C454.949 540.51 454.942 540.543 454.927 540.609C454.885 540.678 454.886 540.748 454.931 540.819C454.921 540.825 454.912 540.845 454.904 540.878C454.887 541.031 454.88 541.177 454.882 541.317L454.864 541.626C454.868 541.723 454.866 541.827 454.858 541.938C454.85 542.05 454.852 542.137 454.864 542.201C454.873 542.237 454.872 542.277 454.863 542.318C454.853 542.359 454.85 542.393 454.853 542.42C454.84 542.513 454.843 542.596 454.861 542.67C454.846 542.736 454.84 542.783 454.842 542.809L454.846 542.849C454.859 542.87 454.875 542.873 454.896 542.861L454.911 542.851L454.949 542.912C454.975 542.953 455.006 542.969 455.043 542.96C455.049 542.97 455.058 542.967 455.07 542.953C455.083 542.938 455.094 542.928 455.104 542.921L455.163 542.778C455.233 542.62 455.276 542.508 455.292 542.442C455.318 542.326 455.344 542.21 455.371 542.094C455.397 541.979 455.424 541.863 455.45 541.747C455.518 541.449 455.552 541.3 455.552 541.3C455.56 541.267 455.566 541.232 455.57 541.193C455.574 541.155 455.582 541.111 455.594 541.062L455.658 540.894C455.649 540.857 455.669 540.787 455.719 540.685C455.72 540.642 455.738 540.581 455.773 540.502L455.792 540.363C455.807 540.297 455.826 540.214 455.849 540.115C455.871 540.015 455.899 539.935 455.93 539.872C455.944 539.736 455.981 539.649 456.042 539.61C456.192 539.488 456.313 539.398 456.404 539.341C456.431 539.338 456.458 539.325 456.485 539.3C456.512 539.276 456.544 539.259 456.581 539.25C456.616 539.215 456.645 539.217 456.671 539.258L456.742 539.405C456.803 539.48 456.891 539.608 457.006 539.791L457.288 540.273C457.473 540.568 457.608 540.795 457.694 540.954C457.755 541.028 457.804 541.101 457.84 541.17C457.877 541.239 457.911 541.299 457.943 541.35C457.916 541.352 457.89 541.355 457.863 541.358C457.836 541.36 457.809 541.363 457.783 541.365C457.619 541.398 457.447 541.406 457.268 541.392C457.088 541.377 456.982 541.366 456.949 541.358L456.844 541.36C456.463 541.273 456.175 541.221 455.979 541.202L455.68 541.199C455.67 541.205 455.668 541.213 455.674 541.224C455.819 541.274 455.961 541.32 456.1 541.36C456.272 541.408 456.519 541.486 456.843 541.595C457.054 541.66 457.317 541.708 457.633 541.736L458.245 541.798C458.289 541.799 458.358 541.801 458.453 541.806C458.547 541.81 458.625 541.793 458.686 541.754C458.752 541.77 458.785 541.777 458.785 541.777L458.816 541.758C458.896 541.75 458.952 541.715 458.984 541.653C458.982 541.583 458.996 541.503 459.025 541.414C459.039 541.391 459.046 541.358 459.048 541.315C459.049 541.272 459.056 541.238 459.07 541.216C459.071 541.172 459.069 541.124 459.064 541.071C459.059 541.017 459.068 540.976 459.093 540.946C459.103 540.94 459.101 540.927 459.089 540.906L459.014 540.72C458.982 540.669 458.957 540.617 458.938 540.565C458.919 540.513 458.894 540.462 458.862 540.411L458.767 540.258C458.735 540.208 458.709 540.149 458.689 540.084C458.669 540.019 458.649 539.971 458.63 539.94C458.611 539.91 458.585 539.873 458.551 539.831C458.517 539.788 458.486 539.733 458.458 539.666C458.397 539.591 458.341 539.509 458.292 539.419C458.243 539.33 458.188 539.247 458.127 539.172C458.05 539.05 457.987 538.962 457.939 538.908C457.966 538.905 457.994 538.894 458.025 538.875L458.557 538.774C459.176 538.655 459.564 538.574 459.722 538.531L460.088 538.471C460.203 538.428 460.348 538.4 460.525 538.388C460.689 538.356 460.941 538.318 461.282 538.274C461.786 538.241 462.083 538.217 462.173 538.203L462.253 538.195L462.329 538.147C462.453 538.141 462.529 538.093 462.558 538.004C462.562 537.987 462.564 537.968 462.565 537.946C462.565 537.925 462.572 537.902 462.586 537.88C462.6 537.857 462.598 537.837 462.58 537.819C462.563 537.802 462.551 537.789 462.544 537.779L462.477 537.672C462.448 537.648 462.411 537.6 462.366 537.529C462.36 537.519 462.34 537.499 462.308 537.47C462.275 537.441 462.263 537.41 462.27 537.377C462.274 537.36 462.264 537.338 462.24 537.311C462.215 537.284 462.187 537.266 462.154 537.259C462.124 537.234 462.066 537.221 461.98 537.219L461.921 537.192C461.898 537.178 461.873 537.162 461.847 537.143C461.821 537.124 461.795 537.116 461.768 537.118C461.712 537.097 461.617 537.093 461.484 537.106L461.218 537.123C461.165 537.129 461.114 537.132 461.066 537.134C461.017 537.136 460.967 537.14 460.913 537.145L460.301 537.253C460.211 537.268 460.132 537.289 460.065 537.317C459.984 537.325 459.907 537.338 459.834 537.356C459.76 537.374 459.696 537.385 459.643 537.39C459.579 537.402 459.48 537.436 459.346 537.492C459.057 537.574 458.889 537.623 458.842 537.639C458.795 537.654 458.743 537.672 458.686 537.694C458.629 537.716 458.573 537.73 458.52 537.735L458.082 537.883L457.515 538.132C457.475 538.158 457.442 538.15 457.416 538.109C457.301 537.927 457.202 537.791 457.118 537.702L457.022 537.549C456.961 537.475 456.909 537.397 456.866 537.318C456.823 537.239 456.771 537.161 456.71 537.087C456.569 536.863 456.456 536.693 456.369 536.578L456.355 536.523L456.485 536.356C456.596 536.173 456.677 536.03 456.726 535.928L456.897 535.693C456.929 535.631 456.965 535.559 457.005 535.476C457.046 535.394 457.099 535.304 457.165 535.206C457.287 535.016 457.36 534.907 457.384 534.877C457.45 534.779 457.484 534.687 457.486 534.6C457.48 534.59 457.477 534.581 457.479 534.573C457.481 534.565 457.487 534.557 457.497 534.551C457.511 534.528 457.518 534.51 457.516 534.496C457.515 534.483 457.498 534.473 457.465 534.465C457.455 534.471 457.437 534.454 457.411 534.414C457.396 534.367 457.389 534.328 457.392 534.298C457.394 534.268 457.394 534.24 457.392 534.213C457.38 534.15 457.343 534.102 457.281 534.071C457.268 534.05 457.215 534.034 457.122 534.021L456.964 533.972C456.908 533.951 456.833 533.955 456.739 533.986C456.698 534.011 456.666 534.039 456.641 534.068C456.617 534.098 456.598 534.124 456.584 534.147L456.527 534.225C456.497 534.244 456.466 534.257 456.434 534.262C456.402 534.268 456.378 534.269 456.361 534.265L456.226 534.287L456.1 534.323L455.677 534.462L455.585 534.519C455.538 534.534 455.474 534.568 455.393 534.619C455.302 534.676 455.204 534.759 455.102 534.866C455.056 534.838 454.983 534.812 454.884 534.79C454.857 534.792 454.825 534.781 454.788 534.755C454.75 534.729 454.713 534.72 454.676 534.729L454.375 534.791L454.144 534.83C454.137 534.82 454.126 534.813 454.109 534.809C454.093 534.805 454.086 534.795 454.09 534.778C454.091 534.735 454.103 534.685 454.124 534.629C454.139 534.563 454.146 534.517 454.143 534.49C454.144 534.447 454.153 534.399 454.169 534.346C454.186 534.293 454.198 534.25 454.205 534.217C454.215 534.098 454.235 533.993 454.264 533.904C454.283 533.821 454.288 533.762 454.279 533.725C454.279 533.725 454.279 533.721 454.281 533.712C454.283 533.704 454.284 533.7 454.284 533.7L454.324 533.526C454.341 533.373 454.358 533.264 454.373 533.198L454.369 533.158L454.34 533.112C454.289 533.031 454.212 532.965 454.111 532.916C453.853 532.823 453.736 532.783 453.759 532.797C453.647 532.754 453.509 532.748 453.345 532.781C453.218 532.804 453.07 532.805 452.901 532.784C452.901 532.784 452.869 532.789 452.805 532.801L452.901 532.953ZM455.604 535.698C455.591 535.678 455.577 535.662 455.562 535.65C455.548 535.638 455.539 535.618 455.537 535.592L455.508 535.546C455.463 535.475 455.42 535.417 455.378 535.372C455.336 535.328 455.297 535.289 455.261 535.254L455.179 535.157C455.166 535.137 455.144 535.08 455.113 534.986C455.094 534.955 455.095 534.934 455.115 534.921C455.207 534.863 455.316 534.834 455.442 534.832C455.569 534.831 455.733 534.844 455.936 534.873C455.962 534.871 455.985 534.874 456.005 534.883C456.025 534.891 456.048 534.895 456.075 534.892L455.887 535.201L455.604 535.698ZM456.218 539.011C456.23 538.961 456.254 538.91 456.292 538.858C456.29 538.831 456.315 538.815 456.368 538.81L456.403 538.831C456.395 538.864 456.381 538.887 456.361 538.9C456.327 538.936 456.279 538.973 456.218 539.011Z"/>
</g>
<path d="M739.971 189.426C761.646 211.1 743.542 266.125 735.719 289.595" fill="none" opacity="1" stroke="#a9e0ff" stroke-linecap="round" stroke-linejoin="round" stroke-width="10" vectornator:layerName="曲线 6"/>
<path d="M720.599 167.218C722.18 170.38 727.102 171.719 728.631 174.778" fill="none" opacity="1" stroke="#a9e0ff" stroke-linecap="round" stroke-linejoin="round" stroke-width="10" vectornator:layerName="曲线 7"/>
<path d="M482.46 761.62C478.715 763.492 476.923 769.047 473.955 772.015C460.16 785.81 442.2 798.947 421.981 798.947" fill="none" opacity="1" stroke="#a9e0ff" stroke-linecap="round" stroke-linejoin="round" stroke-width="10" vectornator:layerName="曲线 8"/>
<path d="M503.25 729.963C501.368 735.609 498.944 746.763 492.855 749.807" fill="none" opacity="1" stroke="#a9e0ff" stroke-linecap="round" stroke-linejoin="round" stroke-width="10" vectornator:layerName="曲线 9"/>
<path d="M115.125 599.099C115.125 605.95 121.306 611.068 124.914 615.879C134.68 628.901 159.668 635.456 175.255 635.456" fill="none" opacity="1" stroke="#a9e0ff" stroke-linecap="round" stroke-linejoin="round" stroke-width="10" vectornator:layerName="曲线 10"/>
<path d="M347.719 54.671C343.586 54.671 338.036 65.609 335.6 68.6546C322.633 84.8631 315.908 103.843 306.701 122.258" fill="none" opacity="1" stroke="#a9e0ff" stroke-linecap="round" stroke-linejoin="round" stroke-width="10" vectornator:layerName="曲线 11"/>
<path d="M299.709 141.369C296.331 143.058 293.626 158.662 291.785 162.345" fill="none" opacity="1" stroke="#a9e0ff" stroke-linecap="round" stroke-linejoin="round" stroke-width="10" vectornator:layerName="曲线 12"/>
<path d="M563.999 84.0366C566.578 85.3262 568.098 87.8571 570.058 89.1639C578.61 94.8652 571.071 68.6345 578.448 66.7901C581.47 66.0347 582.293 73.5472 583.11 75.1803C584.976 78.9133 597.282 101.749 600.822 101.749C604.275 101.749 603.153 89.8224 603.153 87.7655C603.153 76.5928 597.571 67.1984 599.89 55.6033C600.336 53.3746 599.534 49.6113 600.822 47.6792C602.358 45.3752 605.486 50.947 605.95 51.8743C609.127 58.2299 610.171 67.749 615.272 72.8497C618.68 76.2578 632.106 71.343 633.917 67.7224" fill="none" opacity="1" stroke="#ffcac1" stroke-linecap="round" stroke-linejoin="round" stroke-width="10" vectornator:layerName="曲线 13"/>
<path d="M629.722 59.7984C633.279 60.9842 636.56 65.2388 639.044 67.7224C639.497 68.1754 640.909 68.1885 640.909 68.1885C640.909 68.1885 639.461 68.5649 639.044 69.1207C636.431 72.6049 633.04 76.933 631.12 80.7737" fill="none" opacity="1" stroke="#ffcac1" stroke-linecap="round" stroke-linejoin="round" stroke-width="10" vectornator:layerName="曲线 14"/>
</g>
</svg>
